<svg width="15" height="15" viewBox="0 0 15 15" fill="none" xmlns="http://www.w3.org/2000/svg">
<g clip-path="url(#clip0)">
<path d="M14.868 2.98011L10.3188 7.5L14.868 12.0199C14.9503 11.848 15.0002 11.658 15.0002 11.4551V3.54492C15.0002 3.34198 14.9503 3.15199 14.868 2.98011Z" fill="white"/>
<path d="M13.6815 2.22656H1.31823C1.11529 2.22656 0.925303 2.27646 0.753418 2.35869L6.56776 8.14375C7.08187 8.65786 7.91788 8.65786 8.43198 8.14375L14.2463 2.35869C14.0744 2.27646 13.8845 2.22656 13.6815 2.22656Z" fill="white"/>
<path d="M0.132129 2.98011C0.0498926 3.15199 0 3.34198 0 3.54492V11.4551C0 11.658 0.0498926 11.848 0.132129 12.0199L4.68132 7.5L0.132129 2.98011Z" fill="white"/>
<path d="M9.69714 8.12142L9.0534 8.76516C8.19679 9.62177 6.80293 9.62177 5.94632 8.76516L5.30261 8.12142L0.753418 12.6413C0.925303 12.7235 1.11529 12.7734 1.31823 12.7734H13.6815C13.8845 12.7734 14.0744 12.7235 14.2463 12.6413L9.69714 8.12142Z" fill="white"/>
</g>
<defs>
<clipPath id="clip0">
<rect width="15" height="15" fill="white"/>
</clipPath>
</defs>
</svg>
