<svg width="15" height="15" viewBox="0 0 15 15" fill="none" xmlns="http://www.w3.org/2000/svg">
<path d="M14.9963 15V14.9994H15V9.49813C15 6.80688 14.4207 4.73375 11.2744 4.73375C9.76191 4.73375 8.74691 5.56375 8.33254 6.35063H8.28879V4.985H5.30566V14.9994H8.41191V10.0406C8.41191 8.735 8.65941 7.4725 10.2763 7.4725C11.8694 7.4725 11.8932 8.9625 11.8932 10.1244V15H14.9963Z" fill="white"/>
<path d="M0.247559 4.98562H3.35756V15H0.247559V4.98562Z" fill="white"/>
<path d="M1.80125 0C0.806875 0 0 0.806875 0 1.80125C0 2.79562 0.806875 3.61937 1.80125 3.61937C2.79562 3.61937 3.6025 2.79562 3.6025 1.80125C3.60187 0.806875 2.795 0 1.80125 0V0Z" fill="white"/>
</svg>
